<?xml version="1.0" encoding="UTF-8" standalone="no"?>
<!-- Created with Inkscape (http://www.inkscape.org/) -->

<svg
   width="43.279339mm"
   height="4.8895011mm"
   viewBox="0 0 43.279339 4.8895011"
   version="1.1"
   id="svg5"
   xml:space="preserve"
   sodipodi:docname="dark.svg"
   inkscape:version="1.2.2 (732a01da63, 2022-12-09)"
   xmlns:inkscape="http://www.inkscape.org/namespaces/inkscape"
   xmlns:sodipodi="http://sodipodi.sourceforge.net/DTD/sodipodi-0.dtd"
   xmlns:xlink="http://www.w3.org/1999/xlink"
   xmlns="http://www.w3.org/2000/svg"
   xmlns:svg="http://www.w3.org/2000/svg"><sodipodi:namedview
     id="namedview7"
     pagecolor="#ffffff"
     bordercolor="#343f52"
     borderopacity="0.25"
     inkscape:showpageshadow="2"
     inkscape:pageopacity="0.0"
     inkscape:pagecheckerboard="0"
     inkscape:deskcolor="#d1d1d1"
     inkscape:document-units="mm"
     showgrid="false"
     inkscape:zoom="10.35098"
     inkscape:cx="55.212163"
     inkscape:cy="30.52851"
     inkscape:window-width="3840"
     inkscape:window-height="2054"
     inkscape:window-x="-11"
     inkscape:window-y="-11"
     inkscape:window-maximized="1"
     inkscape:current-layer="layer1" /><defs
     id="defs2"><linearGradient
       inkscape:collect="always"
       id="linearGradient872"><stop
         style="stop-color:#343f52;stop-opacity:1;"
         offset="0"
         id="stop868" /><stop
         style="stop-color:#343f52;stop-opacity:0;"
         offset="1"
         id="stop870" /></linearGradient><linearGradient
       inkscape:collect="always"
       xlink:href="#linearGradient872"
       id="linearGradient874"
       x1="64.348751"
       y1="87.885749"
       x2="102.83259"
       y2="87.885749"
       gradientUnits="userSpaceOnUse" /></defs><g
     inkscape:label="Vrstva 1"
     inkscape:groupmode="layer"
     id="layer1"
     transform="translate(-59.553254,-85.440999)"><g
       aria-label="CrowdNavigator
"
       id="text236"
       style="font-size:4.93889px;font-family:Manrope;-inkscape-font-specification:Manrope;fill:#343f52;stroke-width:0.264583;stroke-opacity:0"><path
         d="m 66.050199,89.145166 q -0.5334,0 -0.913695,-0.232127 -0.380294,-0.234598 -0.585258,-0.651934 -0.202495,-0.417336 -0.202495,-0.968022 0,-0.550687 0.202495,-0.968023 0.204964,-0.417336 0.585258,-0.649464 0.380295,-0.234597 0.913695,-0.234597 0.614892,0 1.024819,0.308681 0.409928,0.306211 0.575381,0.827264 l -0.600075,0.165452 q -0.103717,-0.348191 -0.353131,-0.543277 -0.249414,-0.197556 -0.646994,-0.197556 -0.35807,0 -0.597606,0.160514 -0.237067,0.160514 -0.35807,0.451908 -0.118533,0.288925 -0.121002,0.679098 0,0.390172 0.118533,0.681566 0.121003,0.288926 0.360539,0.449439 0.239536,0.160514 0.597606,0.160514 0.39758,0 0.646994,-0.197555 0.249414,-0.197556 0.353131,-0.543278 l 0.600075,0.165453 q -0.165453,0.521053 -0.575381,0.829733 -0.409927,0.306211 -1.024819,0.306211 z"
         style="font-weight:bold;-inkscape-font-specification:'Manrope Bold'"
         id="path471" /><path
         d="m 68.19368,89.071083 v -2.667001 h 0.525992 v 0.649465 l -0.06421,-0.08396 q 0.04939,-0.13335 0.130881,-0.242005 0.08396,-0.111125 0.200025,-0.182739 0.09878,-0.06668 0.217311,-0.103717 0.121003,-0.03951 0.246944,-0.04692 0.125942,-0.0099 0.244475,0.0099 v 0.555626 q -0.118533,-0.03457 -0.274108,-0.02223 -0.153106,0.01235 -0.276578,0.08643 -0.123472,0.06668 -0.202494,0.170392 -0.07655,0.103717 -0.113595,0.237067 -0.03704,0.13088 -0.03704,0.283986 v 1.355725 z"
         style="font-weight:bold;-inkscape-font-specification:'Manrope Bold'"
         id="path473" /><path
         d="m 71.292833,89.145166 q -0.40005,0 -0.698853,-0.180269 -0.298803,-0.18027 -0.464255,-0.496359 -0.162984,-0.318558 -0.162984,-0.730955 0,-0.419806 0.167922,-0.735895 0.167923,-0.316089 0.466726,-0.493889 0.298802,-0.1778 0.691444,-0.1778 0.40252,0 0.701322,0.18027 0.298803,0.180269 0.464256,0.498828 0.165453,0.316088 0.165453,0.728486 0,0.414867 -0.167922,0.733425 -0.165453,0.316089 -0.464256,0.496358 -0.298803,0.1778 -0.698853,0.1778 z m 0,-0.558094 q 0.3556,0 0.528461,-0.237067 0.172861,-0.237067 0.172861,-0.612422 0,-0.387703 -0.17533,-0.617361 -0.175331,-0.232128 -0.525992,-0.232128 -0.239536,0 -0.395111,0.108655 -0.153106,0.106186 -0.227189,0.298803 -0.07408,0.190147 -0.07408,0.442031 0,0.387703 0.17533,0.61983 0.1778,0.229659 0.521053,0.229659 z"
         style="font-weight:bold;-inkscape-font-specification:'Manrope Bold'"
         id="path475" /><path
         d="m 73.636334,89.071083 -0.814917,-2.671939 0.582789,0.0049 0.521053,1.711326 0.528461,-1.711326 h 0.501297 l 0.525992,1.711326 0.523522,-1.711326 h 0.582789 l -0.814916,2.667001 h -0.464256 l -0.605014,-1.834798 -0.602545,1.834798 z"
         style="font-weight:bold;-inkscape-font-specification:'Manrope Bold'"
         id="path477" /><path
         d="m 78.002309,89.145166 q -0.367947,0 -0.642055,-0.185208 -0.274109,-0.185208 -0.424745,-0.503767 -0.150636,-0.318558 -0.150636,-0.718608 0,-0.404989 0.150636,-0.721078 0.153106,-0.318559 0.432153,-0.501297 0.279047,-0.185209 0.656872,-0.185209 0.380295,0 0.637117,0.185209 0.259292,0.182738 0.392642,0.501297 0.13335,0.318558 0.13335,0.721078 0,0.39758 -0.13335,0.718608 -0.13335,0.318559 -0.397581,0.503767 -0.26423,0.185208 -0.654403,0.185208 z m 0.09137,-0.5334 q 0.239536,0 0.385233,-0.108655 0.148167,-0.111125 0.214842,-0.308681 0.06915,-0.197556 0.06915,-0.456847 0,-0.261761 -0.06915,-0.456848 -0.06668,-0.197555 -0.209903,-0.306211 -0.143228,-0.111125 -0.370417,-0.111125 -0.239536,0 -0.395111,0.118534 -0.155575,0.116064 -0.229658,0.316089 -0.07408,0.197555 -0.07408,0.439561 0,0.244475 0.07161,0.4445 0.07408,0.197555 0.22472,0.313619 0.150636,0.116064 0.382764,0.116064 z m 0.66922,0.459317 v -1.871839 h -0.07408 v -1.684162 h 0.600075 v 3.556001 z"
         style="font-weight:bold;-inkscape-font-specification:'Manrope Bold'"
         id="path479" /><path
         d="m 79.980337,89.071083 v -3.556001 h 0.602545 l 1.649589,2.506487 v -2.506487 h 0.602545 v 3.556001 h -0.602545 l -1.649589,-2.506487 v 2.506487 z"
         style="font-weight:bold;-inkscape-font-specification:'Manrope Bold'"
         id="path481" /><path
         d="m 84.272235,89.145166 q -0.288925,0 -0.48895,-0.108655 -0.200025,-0.111125 -0.303742,-0.293864 -0.101247,-0.182739 -0.101247,-0.40252 0,-0.192616 0.06421,-0.345722 0.06421,-0.155575 0.197555,-0.2667 0.13335,-0.113594 0.345722,-0.185208 0.160514,-0.05186 0.375356,-0.09384 0.217311,-0.04198 0.469195,-0.07655 0.254352,-0.03704 0.53093,-0.07902 l -0.212372,0.121002 q 0.0025,-0.276577 -0.123472,-0.407458 -0.125942,-0.130881 -0.424745,-0.130881 -0.180269,0 -0.348192,0.08396 -0.167922,0.08396 -0.234597,0.288925 l -0.543278,-0.170392 q 0.09878,-0.338314 0.375356,-0.543278 0.279047,-0.204964 0.750711,-0.204964 0.3556,0 0.62477,0.116064 0.271639,0.116064 0.402519,0.380295 0.07161,0.140758 0.08643,0.288925 0.01482,0.145697 0.01482,0.318558 v 1.637242 h -0.521053 v -0.57785 l 0.08643,0.09384 q -0.180269,0.288925 -0.422275,0.424744 -0.239536,0.13335 -0.600075,0.13335 z m 0.118533,-0.474133 q 0.202495,0 0.345723,-0.07161 0.143228,-0.07161 0.227189,-0.175331 0.08643,-0.103716 0.116064,-0.195086 0.04692,-0.113594 0.05186,-0.259291 0.0074,-0.148167 0.0074,-0.239537 l 0.182739,0.05433 q -0.269169,0.04198 -0.461786,0.07408 -0.192617,0.0321 -0.330906,0.06174 -0.138289,0.02716 -0.244475,0.06174 -0.103716,0.03704 -0.17533,0.08643 -0.07161,0.04939 -0.111125,0.113595 -0.03704,0.06421 -0.03704,0.150636 0,0.09878 0.04939,0.175331 0.04939,0.07408 0.143228,0.118533 0.09631,0.04445 0.237066,0.04445 z"
         style="font-weight:bold;-inkscape-font-specification:'Manrope Bold'"
         id="path483" /><path
         d="m 86.993562,89.071083 -0.968023,-2.667001 h 0.595137 l 0.671689,1.933576 0.669219,-1.933576 h 0.597606 l -0.968022,2.667001 z"
         style="font-weight:bold;-inkscape-font-specification:'Manrope Bold'"
         id="path485" /><path
         d="m 89.053076,85.999094 v -0.545748 h 0.595136 v 0.545748 z m 0,3.071989 v -2.667001 h 0.595136 v 2.667001 z"
         style="font-weight:bold;-inkscape-font-specification:'Manrope Bold'"
         id="path487" /><path
         d="m 91.510176,90.3305 q -0.22225,0 -0.427214,-0.06914 -0.202495,-0.06915 -0.365478,-0.200025 -0.162983,-0.128412 -0.2667,-0.311151 l 0.548217,-0.271639 q 0.07655,0.145698 0.214841,0.214842 0.140759,0.07161 0.298803,0.07161 0.185209,0 0.330906,-0.06667 0.145697,-0.06421 0.224719,-0.192617 0.08149,-0.125941 0.07655,-0.316089 v -0.758119 h 0.07408 v -2.027415 h 0.521053 v 2.795412 q 0,0.101247 -0.0099,0.192617 -0.0074,0.09384 -0.02716,0.182739 -0.05927,0.259292 -0.227189,0.424744 -0.167923,0.167923 -0.417336,0.249414 -0.246945,0.08149 -0.548217,0.08149 z m -0.05186,-1.185334 q -0.367947,0 -0.642055,-0.185208 -0.274109,-0.185208 -0.424745,-0.503767 -0.150636,-0.318558 -0.150636,-0.718608 0,-0.404989 0.150636,-0.721078 0.153106,-0.318559 0.432153,-0.501297 0.279047,-0.185209 0.656872,-0.185209 0.380295,0 0.637117,0.185209 0.259292,0.182738 0.392642,0.501297 0.13335,0.318558 0.13335,0.721078 0,0.39758 -0.13335,0.718608 -0.13335,0.318559 -0.397581,0.503767 -0.26423,0.185208 -0.654403,0.185208 z m 0.09137,-0.5334 q 0.239536,0 0.385233,-0.108655 0.148167,-0.111125 0.214842,-0.308681 0.06914,-0.197556 0.06914,-0.456847 0,-0.261761 -0.06914,-0.456848 -0.06667,-0.197555 -0.209903,-0.306211 -0.143228,-0.111125 -0.370417,-0.111125 -0.239536,0 -0.395111,0.118534 -0.155575,0.116064 -0.229658,0.316089 -0.07408,0.197555 -0.07408,0.439561 0,0.244475 0.07161,0.4445 0.07408,0.197555 0.22472,0.313619 0.150636,0.116064 0.382764,0.116064 z"
         style="font-weight:bold;-inkscape-font-specification:'Manrope Bold'"
         id="path489" /><path
         d="m 94.177173,89.145166 q -0.288925,0 -0.48895,-0.108655 -0.200025,-0.111125 -0.303742,-0.293864 -0.101247,-0.182739 -0.101247,-0.40252 0,-0.192616 0.06421,-0.345722 0.06421,-0.155575 0.197556,-0.2667 0.13335,-0.113594 0.345722,-0.185208 0.160514,-0.05186 0.375356,-0.09384 0.217311,-0.04198 0.469194,-0.07655 0.254353,-0.03704 0.530931,-0.07902 l -0.212372,0.121002 q 0.0025,-0.276577 -0.123472,-0.407458 -0.125942,-0.130881 -0.424745,-0.130881 -0.18027,0 -0.348192,0.08396 -0.167922,0.08396 -0.234597,0.288925 l -0.543278,-0.170392 q 0.09878,-0.338314 0.375356,-0.543278 0.279047,-0.204964 0.750711,-0.204964 0.3556,0 0.62477,0.116064 0.271639,0.116064 0.402519,0.380295 0.07161,0.140758 0.08643,0.288925 0.01482,0.145697 0.01482,0.318558 v 1.637242 h -0.521053 v -0.57785 l 0.08643,0.09384 q -0.180269,0.288925 -0.422275,0.424744 -0.239536,0.13335 -0.600075,0.13335 z m 0.118533,-0.474133 q 0.202495,0 0.345722,-0.07161 0.143228,-0.07161 0.227189,-0.175331 0.08643,-0.103716 0.116064,-0.195086 0.04692,-0.113594 0.05186,-0.259291 0.0074,-0.148167 0.0074,-0.239537 l 0.182739,0.05433 q -0.26917,0.04198 -0.461786,0.07408 -0.192617,0.0321 -0.330906,0.06174 -0.138289,0.02716 -0.244475,0.06174 -0.103717,0.03704 -0.175331,0.08643 -0.07161,0.04939 -0.111125,0.113595 -0.03704,0.06421 -0.03704,0.150636 0,0.09878 0.04939,0.175331 0.04939,0.07408 0.143227,0.118533 0.09631,0.04445 0.237067,0.04445 z"
         style="font-weight:bold;-inkscape-font-specification:'Manrope Bold'"
         id="path491" /><path
         d="m 97.839362,89.071083 q -0.264231,0.04939 -0.518584,0.04198 -0.251883,-0.0049 -0.451908,-0.09137 -0.200025,-0.0889 -0.303742,-0.279047 -0.09137,-0.172861 -0.09631,-0.353131 -0.0049,-0.180269 -0.0049,-0.407458 v -2.318809 h 0.592667 v 2.284237 q 0,0.160514 0.0025,0.281516 0.0049,0.121003 0.05186,0.197556 0.0889,0.148167 0.283986,0.165453 0.195086,0.01729 0.4445,-0.01976 z M 95.97987,86.870808 v -0.466726 h 1.859492 v 0.466726 z"
         style="font-weight:bold;-inkscape-font-specification:'Manrope Bold'"
         id="path493" /><path
         d="m 99.45686,89.145166 q -0.40005,0 -0.698853,-0.180269 -0.298803,-0.18027 -0.464256,-0.496359 -0.162983,-0.318558 -0.162983,-0.730955 0,-0.419806 0.167922,-0.735895 0.167922,-0.316089 0.466725,-0.493889 0.298803,-0.1778 0.691445,-0.1778 0.402519,0 0.70132,0.18027 0.29881,0.180269 0.46426,0.498828 0.16545,0.316088 0.16545,0.728486 0,0.414867 -0.16792,0.733425 -0.16545,0.316089 -0.46426,0.496358 -0.2988,0.1778 -0.69885,0.1778 z m 0,-0.558094 q 0.3556,0 0.528461,-0.237067 0.172859,-0.237067 0.172859,-0.612422 0,-0.387703 -0.175328,-0.617361 -0.175331,-0.232128 -0.525992,-0.232128 -0.239536,0 -0.395111,0.108655 -0.153106,0.106186 -0.227189,0.298803 -0.07408,0.190147 -0.07408,0.442031 0,0.387703 0.175331,0.61983 0.1778,0.229659 0.521053,0.229659 z"
         style="font-weight:bold;-inkscape-font-specification:'Manrope Bold'"
         id="path495" /><path
         d="m 101.33117,89.071083 v -2.667001 h 0.52599 v 0.649465 l -0.0642,-0.08396 q 0.0494,-0.13335 0.13088,-0.242005 0.084,-0.111125 0.20002,-0.182739 0.0988,-0.06668 0.21731,-0.103717 0.12101,-0.03951 0.24695,-0.04692 0.12594,-0.0099 0.24447,0.0099 v 0.555626 q -0.11853,-0.03457 -0.27411,-0.02223 -0.1531,0.01235 -0.27657,0.08643 -0.12348,0.06668 -0.2025,0.170392 -0.0765,0.103717 -0.11359,0.237067 -0.037,0.13088 -0.037,0.283986 v 1.355725 z"
         style="font-weight:bold;-inkscape-font-specification:'Manrope Bold'"
         id="path497" /></g><path
       d="m 62.837124,87.276097 a 1.47208,1.47208 0 1 0 -2.94416,0 1.47208,1.47208 0 1 0 2.94416,0 z m -3.28387,0 a 1.8117901,1.8117901 0 1 1 3.62358,0 1.8117901,1.8117901 0 1 1 -3.62358,0 z m 2.170609,0.489043 -1.021255,0.392791 c -0.137299,0.05308 -0.272476,-0.0821 -0.219396,-0.219397 l 0.39279,-1.021256 c 0.02335,-0.06015 0.07006,-0.106867 0.130222,-0.130222 l 1.021256,-0.392791 c 0.1373,-0.05308 0.272476,0.0821 0.219397,0.219397 l -0.392791,1.021256 c -0.02266,0.06015 -0.07006,0.106867 -0.130223,0.130222 z m -0.132346,-0.489043 a 0.22647381,0.22647381 0 1 0 -0.452947,0 0.22647381,0.22647381 0 1 0 0.452947,0 z"
       id="path2089"
       style="fill:#343f52;fill-opacity:1;stroke-width:0.0070773" /></g></svg>
