<svg width="141" height="23" viewBox="0 0 141 23" fill="none" xmlns="http://www.w3.org/2000/svg">
<path d="M0.506262 7.55012H4.663V21.863H0.506262V7.55012ZM2.58463 5.55484C1.82079 5.55484 1.19905 5.33314 0.719429 4.88974C0.239806 4.44635 0 3.89654 0 3.24031C0 2.58408 0.239806 2.03427 0.719429 1.59088C1.19905 1.14748 1.82079 0.925781 2.58463 0.925781C3.34847 0.925781 3.97021 1.13861 4.44983 1.56427C4.92945 1.98993 5.16927 2.52201 5.16927 3.1605C5.16927 3.8522 4.92945 4.42861 4.44983 4.88974C3.97021 5.33314 3.34847 5.55484 2.58463 5.55484Z" fill="#1961FF"/>
<path d="M17.234 7.33729C19.0103 7.33729 20.4403 7.86937 21.5239 8.93352C22.6253 9.99767 23.1759 11.5762 23.1759 13.669V21.863H19.0192V14.3075C19.0192 13.1724 18.7705 12.3299 18.2731 11.7801C17.7757 11.2126 17.0563 10.9288 16.1148 10.9288C15.0668 10.9288 14.2319 11.2569 13.6101 11.9131C12.9884 12.5516 12.6775 13.5094 12.6775 14.7863V21.863H8.5208V7.55012H12.491V9.22616C13.0417 8.62314 13.7256 8.16201 14.5427 7.84276C15.3599 7.50578 16.2569 7.33729 17.234 7.33729Z" fill="#1961FF"/>
<path d="M40.9124 7.55012L34.8638 21.863H30.5739L24.5519 7.55012H28.8419L32.8121 17.2871L36.9156 7.55012H40.9124Z" fill="#1961FF"/>
<path d="M56.2606 14.7597C56.2606 14.813 56.2339 15.1854 56.1806 15.8771H45.3358C45.5312 16.7639 45.9931 17.4645 46.7214 17.9788C47.4497 18.4931 48.3557 18.7503 49.4393 18.7503C50.1853 18.7503 50.8426 18.6439 51.411 18.4311C51.9973 18.2005 52.539 17.8458 53.0364 17.3669L55.248 19.7613C53.898 21.3043 51.9262 22.0758 49.3327 22.0758C47.7162 22.0758 46.2862 21.7654 45.0427 21.1447C43.7993 20.5062 42.84 19.6282 42.165 18.5109C41.49 17.3935 41.1524 16.1254 41.1524 14.7065C41.1524 13.3054 41.4811 12.0462 42.1383 10.9288C42.8134 9.79371 43.7282 8.91578 44.8828 8.29503C46.0553 7.65654 47.3609 7.33729 48.7998 7.33729C50.2031 7.33729 51.4732 7.6388 52.6101 8.24182C53.747 8.84484 54.6352 9.7139 55.2747 10.849C55.9319 11.9663 56.2606 13.2699 56.2606 14.7597ZM48.8264 10.4765C47.8849 10.4765 47.0944 10.7426 46.4549 11.2747C45.8154 11.8067 45.4246 12.5339 45.2825 13.4562H52.3436C52.2015 12.5516 51.8107 11.8333 51.1712 11.3013C50.5317 10.7514 49.7501 10.4765 48.8264 10.4765Z" fill="#1961FF"/>
<path d="M63.8509 22.0758C62.6607 22.0758 61.4971 21.9339 60.3603 21.6501C59.2234 21.3486 58.3174 20.9762 57.6424 20.5328L59.028 17.5531C59.6675 17.9611 60.4402 18.298 61.3462 18.5641C62.2521 18.8124 63.1403 18.9365 64.0107 18.9365C65.7693 18.9365 66.6486 18.502 66.6486 17.633C66.6486 17.225 66.4088 16.9324 65.9292 16.755C65.4496 16.5777 64.7124 16.4269 63.7176 16.3028C62.5452 16.1254 61.5771 15.9214 60.8132 15.6909C60.0494 15.4603 59.3833 15.0524 58.8148 14.4671C58.2641 13.8818 57.9888 13.0482 57.9888 11.9663C57.9888 11.0618 58.2464 10.2637 58.7615 9.57201C59.2944 8.86257 60.0583 8.31276 61.0531 7.92257C62.0656 7.53239 63.2558 7.33729 64.6236 7.33729C65.6361 7.33729 66.6398 7.45257 67.6345 7.68314C68.6471 7.89597 69.482 8.19748 70.1393 8.58767L68.7537 11.5407C67.4924 10.8313 66.1157 10.4765 64.6236 10.4765C63.7354 10.4765 63.0692 10.6007 62.6251 10.849C62.1811 11.0973 61.959 11.4165 61.959 11.8067C61.959 12.2501 62.1988 12.5605 62.6784 12.7379C63.1581 12.9152 63.9219 13.0837 64.97 13.2433C66.1424 13.4384 67.1016 13.6513 67.8477 13.8818C68.5938 14.0947 69.2422 14.4937 69.7928 15.079C70.3435 15.6643 70.6189 16.4801 70.6189 17.5265C70.6189 18.4133 70.3524 19.2026 69.8195 19.8943C69.2866 20.586 68.505 21.1269 67.4747 21.5171C66.4621 21.8896 65.2542 22.0758 63.8509 22.0758Z" fill="#1961FF"/>
<path d="M82.4296 21.1713C82.021 21.4728 81.5147 21.7033 80.9108 21.863C80.3246 22.0048 79.7028 22.0758 79.0456 22.0758C77.3402 22.0758 76.0169 21.6413 75.0754 20.7722C74.1516 19.9031 73.6898 18.6262 73.6898 16.9413V11.0618H71.4782V7.86937H73.6898V4.38427H77.8465V7.86937H81.417V11.0618H77.8465V16.888C77.8465 17.4911 77.9975 17.9611 78.2995 18.298C78.6192 18.6173 79.0633 18.7769 79.6318 18.7769C80.289 18.7769 80.8486 18.5996 81.3105 18.2448L82.4296 21.1713Z" fill="#1961FF"/>
<path d="M91.1419 22.0758C89.632 22.0758 88.273 21.7654 87.0651 21.1447C85.8749 20.5062 84.9423 19.6282 84.2673 18.5109C83.5923 17.3935 83.2548 16.1254 83.2548 14.7065C83.2548 13.2877 83.5923 12.0196 84.2673 10.9022C84.9423 9.78484 85.8749 8.91578 87.0651 8.29503C88.273 7.65654 89.632 7.33729 91.1419 7.33729C92.6518 7.33729 94.0019 7.65654 95.1921 8.29503C96.3822 8.91578 97.3148 9.78484 97.9899 10.9022C98.6649 12.0196 99.0024 13.2877 99.0024 14.7065C99.0024 16.1254 98.6649 17.3935 97.9899 18.5109C97.3148 19.6282 96.3822 20.5062 95.1921 21.1447C94.0019 21.7654 92.6518 22.0758 91.1419 22.0758ZM91.1419 18.6705C92.2077 18.6705 93.0782 18.3158 93.7532 17.6063C94.446 16.8792 94.7924 15.9126 94.7924 14.7065C94.7924 13.5005 94.446 12.5428 93.7532 11.8333C93.0782 11.1062 92.2077 10.7426 91.1419 10.7426C90.0761 10.7426 89.1968 11.1062 88.504 11.8333C87.8112 12.5428 87.4648 13.5005 87.4648 14.7065C87.4648 15.9126 87.8112 16.8792 88.504 17.6063C89.1968 18.3158 90.0761 18.6705 91.1419 18.6705Z" fill="#1961FF"/>
<path d="M124.412 7.55012L119.216 21.863H115.22L111.996 12.9773L108.665 21.863H104.668L99.4987 7.55012H103.416L106.8 17.2339L110.317 7.55012H113.834L117.245 17.2339L120.735 7.55012H124.412Z" fill="#1961FF"/>
<path d="M135.058 7.33729C136.834 7.33729 138.264 7.86937 139.348 8.93352C140.449 9.99767 141 11.5762 141 13.669V21.863H136.843V14.3075C136.843 13.1724 136.595 12.3299 136.097 11.7801C135.6 11.2126 134.88 10.9288 133.939 10.9288C132.891 10.9288 132.056 11.2569 131.434 11.9131C130.812 12.5516 130.502 13.5094 130.502 14.7863V21.863H126.345V7.55012H130.315V9.22616C130.866 8.62314 131.55 8.16201 132.367 7.84276C133.184 7.50578 134.081 7.33729 135.058 7.33729Z" fill="#1961FF"/>
</svg>
